<svg viewBox="0 0 64 64" xmlns="http://www.w3.org/2000/svg">
  <!-- rounded badge -->
  <rect x="2" y="2" width="40" height="40" rx="8" fill="#0b1220"/>
  <!-- circuit lines -->
  <g transform="translate(8,8)" stroke="#0ea5e9" stroke-width="1.8" stroke-linecap="round" stroke-linejoin="round" fill="none" opacity="0.95">
    <path d="M6 6 H18" />
    <circle cx="6" cy="6" r="1.6" fill="#0ea5e9" stroke="none"/>
    <circle cx="18" cy="6" r="1.6" fill="#0ea5e9" stroke="none"/>
    <path d="M6 18 V12" />
    <circle cx="6" cy="18" r="1.6" fill="#0ea5e9" stroke="none"/>
  </g>

  <!-- magnifier (overlapping badge) -->
  <g transform="translate(28,28) rotate(-10)">
    <circle cx="6" cy="6" r="6" stroke="#ffffff" stroke-width="2.4" fill="none" opacity="0.95"/>
    <rect x="11" y="11" width="9" height="3" rx="1.2" transform="rotate(45 11 11)" fill="#111827" stroke="#ffffff" stroke-width="1.6" />
  </g>

  <!-- small rating star -->
  <polygon points="50,8 52.5,13 58,13 53.5,16 55.5,21 50,17 44.5,21 46.5,16 42,13 47.5,13"
           fill="#facc15" stroke="#f59e0b" stroke-width="0.6"/>

  <!-- rounded outline for polish -->
  <rect x="2" y="2" width="40" height="40" rx="8" fill="none" stroke="rgba(255,255,255,0.03)"/>
</svg>